PathFileType	4	(X/Y/Z)	C:\Git\research_data\torsion_deformities_healthy_kinematics\simulations\P03\pre\Static01\markers_HJC.trc
DataRate	CameraRate	NumFrames	NumMarkers	Units	OrigDataRate	OrigDataStartFrame	OrigNumFrames
150	150	6	38	mm	150	19	150
Frame#	Time	C7			T10			CLAV			STRN			RBAK			SACR			LASI			RASI			LT1			LT2			LT3			LS1			LS2			LS3			LHEE			LTOE			RT1			RT2			RT3			RS1			RS2			RS3			RHEE			RTOE			LKNE			LKNM			LANK			LANM			RKNM			RKNE			RANM			RANK			LKJC			RKJC			LAJC			RAJC			LHJC			RHJC		
		X1	Y1	Z1	X2	Y2	Z2	X3	Y3	Z3	X4	Y4	Z4	X5	Y5	Z5	X6	Y6	Z6	X7	Y7	Z7	X8	Y8	Z8	X9	Y9	Z9	X10	Y10	Z10	X11	Y11	Z11	X12	Y12	Z12	X13	Y13	Z13	X14	Y14	Z14	X15	Y15	Z15	X16	Y16	Z16	X17	Y17	Z17	X18	Y18	Z18	X19	Y19	Z19	X20	Y20	Z20	X21	Y21	Z21	X22	Y22	Z22	X23	Y23	Z23	X24	Y24	Z24	X25	Y25	Z25	X26	Y26	Z26	X27	Y27	Z27	X28	Y28	Z28	X29	Y29	Z29	X30	Y30	Z30	X31	Y31	Z31	X32	Y32	Z32	X33	Y33	Z33	X34	Y34	Z34	X35	Y35	Z35	X36	Y36	Z36	X37	Y37	Z37	X38	Y38	Z38	

19	0.120000	442.105560	1274.260376	-962.802307	444.118530	1094.640137	-914.631226	426.246674	1213.448486	-1094.557617	421.711975	1160.857544	-1127.341675	541.385681	1177.316284	-933.225708	429.257202	875.282837	-917.578308	277.224182	871.131470	-1073.296143	519.972778	879.244446	-1126.093018	242.196106	586.142151	-1128.424683	230.694366	474.473236	-1079.038330	275.016937	531.554138	-1203.418579	282.212128	217.101898	-1033.088135	342.055298	148.507401	-950.456421	254.005356	131.623703	-1062.053833	367.807404	41.793541	-973.795288	262.096985	41.307362	-1083.177490	591.736938	608.343018	-1133.491943	585.700745	510.609955	-1056.459717	582.299377	534.859375	-1198.346191	587.054687	266.988251	-1088.923828	561.725159	217.350891	-981.351868	582.413086	176.773773	-1116.617676	500.110016	44.987022	-981.975891	570.669495	41.800732	-1123.357300	267.165955	432.598022	-1147.663208	366.395844	421.612244	-1164.557373	304.619904	49.570068	-994.165344	356.665192	47.215923	-1044.949951	465.908569	424.404510	-1165.133789	568.439514	440.233917	-1164.913452	490.808746	52.920715	-1062.910278	552.249634	47.647686	-1019.098938	316.780884	427.105133	-1156.110229	517.174072	432.319214	-1165.023560	330.642548	48.392998	-1019.557617	521.529175	50.284199	-1041.004639	325.645670	786.962975	-1028.156807	500.118606	792.794089	-1066.103992	
20	0.126667	442.157257	1274.295288	-962.800232	444.168884	1094.674805	-914.609985	426.311005	1213.455078	-1094.533325	421.777313	1160.844971	-1127.318481	541.447144	1177.354736	-933.217041	429.301270	875.314880	-917.486694	277.295044	871.132568	-1073.241577	520.038086	879.255615	-1126.023193	242.249832	586.158264	-1128.396729	230.770569	474.504120	-1078.980469	275.084259	531.567078	-1203.370605	282.215912	217.111176	-1033.072388	342.045074	148.503113	-950.432251	254.007141	131.638397	-1062.046021	367.789886	41.795715	-973.769653	262.088989	41.313931	-1083.175537	591.774414	608.357727	-1133.447510	585.755127	510.629700	-1056.401733	582.297119	534.869934	-1198.287964	587.071289	266.987793	-1088.883789	561.754395	217.335190	-981.320740	582.412781	176.783005	-1116.603027	500.119263	44.980270	-981.966431	570.667603	41.796650	-1123.356445	267.221405	432.625732	-1147.641602	366.459229	421.626068	-1164.509766	304.613678	49.567616	-994.156189	356.661560	47.220097	-1044.934448	465.916687	424.432343	-1165.030884	568.446655	440.253815	-1164.853271	490.810699	52.923424	-1062.889771	552.258728	47.645744	-1019.097168	316.840332	427.125916	-1156.075684	517.181702	432.343079	-1164.942017	330.637634	48.393856	-1019.545288	521.534729	50.284584	-1040.993408	325.719658	786.976023	-1028.081933	500.189081	792.814391	-1066.018254	
21	0.133333	442.208191	1274.329590	-962.802856	444.222687	1094.713135	-914.586304	426.373077	1213.454590	-1094.516602	421.842407	1160.818604	-1127.292358	541.510315	1177.398193	-933.211731	429.349365	875.341309	-917.395752	277.365540	871.130981	-1073.184204	520.103760	879.270813	-1125.954468	242.312851	586.173706	-1128.378174	230.861496	474.526001	-1078.924927	275.174408	531.580017	-1203.331543	282.220734	217.117661	-1033.063110	342.030609	148.497604	-950.410156	254.014511	131.651276	-1062.048950	367.777863	41.795803	-973.751648	262.088501	41.317345	-1083.177368	591.805359	608.371887	-1133.402954	585.793884	510.652863	-1056.330933	582.288025	534.881226	-1198.230591	587.083740	266.987946	-1088.846924	561.781738	217.320099	-981.290710	582.406982	176.793320	-1116.591797	500.128967	44.973133	-981.955872	570.663086	41.794014	-1123.355957	267.272308	432.656616	-1147.650269	366.533844	421.635345	-1164.451904	304.609680	49.565704	-994.149719	356.661377	47.223648	-1044.917358	465.911682	424.468750	-1164.920288	568.445190	440.277069	-1164.796021	490.809143	52.923252	-1062.868896	552.267517	47.643150	-1019.095886	316.903076	427.145996	-1156.051025	517.178406	432.372894	-1164.858154	330.635529	48.394676	-1019.533508	521.538330	50.283199	-1040.982422	325.795873	786.985081	-1028.008477	500.262206	792.835526	-1065.936721	
22	0.140000	442.259766	1274.360840	-962.810974	444.278992	1094.753540	-914.562378	426.431702	1213.448975	-1094.508423	421.905914	1160.781860	-1127.265869	541.573120	1177.444580	-933.209473	429.403687	875.361816	-917.312317	277.433411	871.125183	-1073.126953	520.168823	879.288757	-1125.887451	242.383881	586.187195	-1128.365479	230.955154	474.536652	-1078.879517	275.283875	531.593201	-1203.301636	282.227692	217.121628	-1033.058960	342.014008	148.490570	-950.391846	254.027115	131.662125	-1062.061157	367.771606	41.792675	-973.742249	262.095001	41.317581	-1083.182739	591.830933	608.384155	-1133.357910	585.819153	510.676300	-1056.250244	582.274780	534.891296	-1198.174561	587.092773	266.987976	-1088.811035	561.806946	217.305252	-981.261108	582.396606	176.803162	-1116.583862	500.138794	44.965946	-981.944275	570.655579	41.792179	-1123.354980	267.328247	432.672546	-1147.649780	366.614075	421.639557	-1164.384277	304.608734	49.563419	-994.144043	356.664093	47.226128	-1044.898926	465.895355	424.509521	-1164.802612	568.435974	440.300415	-1164.740967	490.803986	52.920578	-1062.849487	552.275146	47.639519	-1019.094421	316.971161	427.156067	-1156.017090	517.165649	432.404968	-1164.771851	330.636414	48.394772	-1019.521484	521.539551	50.280048	-1040.972046	325.871658	786.988692	-1027.939533	500.336206	792.856210	-1065.860809	
23	0.146667	442.312988	1274.387573	-962.826416	444.336823	1094.793701	-914.541443	426.487335	1213.440430	-1094.507935	421.965576	1160.739624	-1127.244873	541.634277	1177.491211	-933.211609	429.465485	875.377441	-917.240540	277.496613	871.114746	-1073.070679	520.231812	879.307861	-1125.821533	242.462357	586.197388	-1128.355591	231.039963	474.539062	-1078.855591	275.408386	531.605957	-1203.279297	282.238495	217.123825	-1033.057983	341.997681	148.482086	-950.378540	254.044434	131.671097	-1062.079956	367.769348	41.785862	-973.739746	262.107147	41.313812	-1083.190796	591.852295	608.393921	-1133.313110	585.834961	510.697083	-1056.166504	582.259644	534.897888	-1198.117310	587.099304	266.987213	-1088.774780	561.830750	217.290390	-981.231384	582.382812	176.811508	-1116.577881	500.148376	44.959114	-981.931763	570.644958	41.790501	-1123.353271	267.401794	432.662598	-1147.615112	366.699951	421.639618	-1164.313599	304.610291	49.560883	-994.137451	356.669037	47.227180	-1044.879883	465.870941	424.549011	-1164.680664	568.420349	440.320160	-1164.687866	490.795929	52.916420	-1062.832764	552.280945	47.634644	-1019.092285	317.050873	427.151123	-1155.964355	517.145630	432.434601	-1164.684326	330.639648	48.394032	-1019.508728	521.538452	50.275532	-1040.962524	325.944327	786.986729	-1027.875553	500.408795	792.875481	-1065.789913	
24	0.153333	442.368164	1274.409668	-962.850098	444.395416	1094.831909	-914.527588	426.541321	1213.430664	-1094.512695	422.019592	1160.695923	-1127.232422	541.693542	1177.535278	-933.219971	429.534302	875.390564	-917.181213	277.553528	871.100525	-1073.013794	520.291443	879.326172	-1125.756470	242.548492	586.202942	-1128.347168	231.109955	474.538208	-1078.861206	275.543976	531.617554	-1203.261963	282.254486	217.125168	-1033.058716	341.983643	148.472565	-950.370789	254.065628	131.678879	-1062.101929	367.768585	41.775856	-973.741028	262.123383	41.305027	-1083.200073	591.870911	608.401062	-1133.269775	585.846619	510.712921	-1056.088501	582.244202	534.899841	-1198.057251	587.104065	266.985291	-1088.737427	561.853455	217.275803	-981.201477	582.367371	176.818207	-1116.572510	500.157593	44.953083	-981.918579	570.632019	41.788525	-1123.350830	267.492706	432.644409	-1147.570923	366.791656	421.636078	-1164.245728	304.612518	49.558952	-994.129761	356.675720	47.226662	-1044.861450	465.843231	424.583099	-1164.560547	568.401062	440.333710	-1164.636963	490.786407	52.911861	-1062.818604	552.284912	47.628532	-1019.089417	317.142181	427.140228	-1155.908325	517.122131	432.458405	-1164.598755	330.644135	48.392807	-1019.495605	521.535645	50.270195	-1040.953979	326.011818	786.980293	-1027.814086	500.478123	792.892423	-1065.722543	
